<?xml version="1.0" standalone="no"?>
<!DOCTYPE svg PUBLIC "-//W3C//DTD SVG 20010904//EN"
 "http://www.w3.org/TR/2001/REC-SVG-20010904/DTD/svg10.dtd">
<svg version="1.0" xmlns="http://www.w3.org/2000/svg"
 width="225.000000pt" height="225.000000pt" viewBox="0 0 225.000000 225.000000"
 preserveAspectRatio="xMidYMid meet">

<g transform="translate(0.000000,225.000000) scale(0.100000,-0.100000)"
fill="#000000" stroke="none">
<path d="M1045 1802 c-46 -32 -85 -85 -85 -117 0 -13 -7 -28 -15 -35 -8 -7
-15 -25 -15 -39 0 -18 -12 -39 -36 -62 -37 -35 -94 -124 -94 -147 0 -7 -11
-28 -24 -45 -33 -45 -66 -112 -66 -137 0 -28 27 -36 58 -18 25 16 26 16 52
-41 17 -35 48 -75 82 -106 52 -48 55 -54 61 -109 3 -33 13 -66 21 -74 14 -14
17 -14 36 3 11 10 25 36 32 57 l11 38 62 0 62 0 12 -40 c14 -48 49 -77 69 -57
7 8 16 40 19 73 6 55 9 61 61 109 35 31 65 71 82 107 25 52 29 56 45 44 17
-12 17 -15 0 -64 -15 -42 -16 -55 -6 -80 24 -56 102 -62 134 -10 8 13 38 83
68 156 46 114 58 135 87 152 33 20 62 71 62 110 0 12 -13 28 -32 40 -43 26
-55 25 -62 -6 -4 -14 -12 -23 -19 -21 -13 4 -14 21 -3 48 5 12 -3 19 -35 29
-41 14 -42 14 -72 -20 -28 -31 -29 -37 -24 -93 4 -50 1 -69 -20 -119 l-26 -59
-29 48 c-43 73 -44 75 -67 126 -12 27 -42 70 -66 96 -29 31 -45 57 -45 73 0
14 -7 31 -15 38 -8 7 -15 22 -15 35 0 32 -39 85 -85 117 -54 37 -106 37 -160
0z m123 -114 l3 -118 -46 0 -45 0 0 113 c0 63 3 117 7 121 4 4 23 6 43 4 l35
-3 3 -117z m-98 -8 l0 -110 -29 0 c-49 0 -64 24 -59 93 4 54 8 63 41 93 20 19
39 34 42 34 3 0 5 -49 5 -110z m158 78 c47 -51 58 -146 20 -172 -12 -9 -30
-16 -40 -16 -16 0 -18 11 -18 105 0 58 4 105 8 105 5 0 18 -10 30 -22z m-258
-143 c0 -8 9 -24 20 -35 18 -18 33 -20 135 -20 102 0 117 2 135 20 11 11 20
27 20 35 0 8 5 15 10 15 22 0 9 -53 -19 -81 -29 -29 -31 -29 -146 -29 -115 0
-117 0 -146 29 -28 28 -41 81 -19 81 6 0 10 -7 10 -15z m17 -104 c12 -6 47
-11 78 -11 l57 0 -4 -38 c-2 -22 1 -39 7 -39 6 0 9 17 7 39 l-4 38 57 0 c60 0
91 11 115 42 15 18 16 18 45 -12 l29 -30 -21 -64 -21 -64 55 -39 c51 -36 54
-40 50 -74 -3 -20 -14 -57 -25 -82 l-21 -47 -65 0 -66 0 0 43 c0 23 -7 55 -15
71 -13 24 -13 36 -4 63 6 19 19 37 28 41 14 6 16 13 9 39 -12 47 -43 61 -78
35 -21 -16 -30 -18 -41 -9 -7 7 -6 3 4 -9 9 -11 17 -30 17 -42 0 -15 6 -22 20
-22 21 0 25 -7 12 -28 -7 -10 -18 -10 -54 -1 -40 11 -49 10 -90 -10 -53 -25
-78 -67 -78 -130 l0 -41 -66 0 -65 0 -21 47 c-23 51 -35 123 -22 123 5 0 23
13 39 28 17 15 25 23 17 18 -18 -13 -33 5 -34 42 -1 34 20 92 33 92 5 0 9 5 9
12 0 7 12 25 27 40 27 28 28 28 43 10 8 -11 25 -25 37 -31z m674 29 c15 -9 17
-15 9 -30 -14 -26 -13 -28 19 -45 28 -14 30 -14 48 11 24 33 53 24 53 -18 0
-40 -14 -62 -52 -85 -28 -17 -41 -40 -92 -164 -32 -79 -63 -150 -69 -156 -17
-22 -65 -15 -82 11 -15 23 -13 32 49 182 51 125 62 163 54 178 -13 25 -3 83
18 107 20 22 20 22 45 9z m-406 -130 c11 -17 -5 -32 -21 -19 -7 6 -11 15 -8
20 7 12 21 11 29 -1z m102 -32 c-3 -8 -6 -5 -6 6 -1 11 2 17 5 13 3 -3 4 -12
1 -19z m-567 -97 c0 -31 -5 -42 -26 -56 -14 -9 -28 -14 -31 -12 -7 7 38 107
48 107 5 0 9 -17 9 -39z m431 16 c-10 -9 -11 -8 -5 6 3 10 9 15 12 12 3 -3 0
-11 -7 -18z m272 -12 c17 -36 22 -65 11 -65 -3 0 -14 5 -25 10 -14 8 -19 21
-19 50 0 49 11 51 33 5z m-293 -4 c22 -16 25 -25 25 -82 l0 -64 -102 -3 -101
-3 -1 64 c0 51 4 68 18 81 42 38 113 41 161 7z m-207 -180 c3 -14 1 -18 -9
-14 -8 3 -14 9 -14 15 0 5 -4 7 -8 4 -4 -2 -14 -1 -22 5 -11 6 -7 9 16 9 23 0
33 -5 37 -19z m257 16 c0 -19 -36 -105 -48 -114 -9 -7 -43 -13 -77 -13 -34 0
-68 6 -77 13 -12 9 -48 95 -48 114 0 2 56 3 125 3 69 0 125 -1 125 -3z m-211
-143 c2 -2 -4 -22 -14 -44 -21 -47 -31 -42 -41 19 l-7 44 29 -7 c16 -4 31 -9
33 -12z m227 -26 c-10 -60 -17 -65 -37 -27 -23 43 -23 56 -1 62 42 11 45 9 38
-35z"/>
<path d="M997 1428 c-9 -7 -21 -27 -26 -44 -7 -26 -5 -33 15 -50 13 -10 23
-26 24 -34 0 -10 3 -11 8 -4 4 6 17 16 30 23 14 8 22 21 22 38 0 15 8 36 17
47 10 12 11 16 4 9 -11 -10 -19 -8 -39 7 -29 23 -33 24 -55 8z m51 -25 c-4
-22 -22 -20 -26 1 -2 10 3 16 13 16 10 0 15 -7 13 -17z"/>
<path d="M1633 1382 c-18 -11 -96 -210 -89 -227 3 -10 15 -15 28 -13 17 2 31
25 66 108 29 71 41 110 35 119 -12 18 -25 23 -40 13z m30 -19 c6 -9 -69 -193
-84 -208 -6 -5 -13 -5 -20 2 -7 7 3 40 32 112 37 90 58 117 72 94z"/>
<path d="M1522 1089 c2 -6 8 -10 13 -10 5 0 11 4 13 10 2 6 -4 11 -13 11 -9 0
-15 -5 -13 -11z"/>
<path d="M584 636 c-3 -7 -4 -42 -2 -77 l3 -64 50 0 c39 0 50 4 53 18 3 14 -4
17 -32 17 -25 0 -36 4 -36 15 0 10 10 15 30 15 20 0 30 5 30 15 0 10 -10 15
-30 15 -40 0 -38 18 2 22 22 2 34 9 36 21 3 14 -4 17 -48 17 -33 0 -52 -5 -56
-14z"/>
<path d="M1252 605 c-43 -56 -40 -79 11 -83 25 -2 37 -8 37 -18 0 -24 29 -12
48 19 13 20 14 30 5 35 -6 4 -13 25 -15 47 -3 34 -7 40 -28 42 -19 2 -33 -7
-58 -42z m48 -25 c0 -11 -7 -20 -15 -20 -18 0 -19 12 -3 28 16 16 18 15 18 -8z"/>
<path d="M1400 630 c-45 -45 -14 -140 45 -140 39 0 65 33 65 83 0 71 -63 104
-110 57z m68 -54 c4 -46 -10 -65 -33 -46 -27 22 -16 94 14 88 11 -2 17 -16 19
-42z"/>
<path d="M1573 613 c-16 -21 -33 -44 -37 -51 -11 -19 13 -42 44 -42 16 0 30
-7 34 -15 7 -19 36 -20 36 -1 0 8 7 16 15 20 19 7 20 36 1 36 -10 0 -16 14
-18 43 -4 59 -34 63 -75 10z m37 -33 c0 -11 -7 -20 -15 -20 -13 0 -14 4 -5 20
6 11 13 20 15 20 3 0 5 -9 5 -20z"/>
<path d="M733 614 c-8 -4 -13 -27 -13 -65 0 -52 2 -59 20 -59 17 0 20 7 20 46
0 38 4 47 20 51 12 3 19 11 17 17 -4 12 -44 18 -64 10z"/>
<path d="M836 607 c-24 -18 -19 -110 7 -115 14 -3 17 4 17 43 0 38 4 48 20 52
11 3 20 12 20 19 0 18 -40 18 -64 1z"/>
<path d="M939 610 c-34 -20 -31 -88 5 -112 21 -14 63 -8 81 12 52 57 -19 139
-86 100z m56 -56 c0 -19 -5 -29 -15 -29 -16 0 -25 28 -16 51 10 25 31 10 31
-22z"/>
<path d="M1086 607 c-24 -18 -19 -110 7 -115 14 -3 17 4 17 43 0 38 4 48 20
52 11 3 20 12 20 19 0 18 -40 18 -64 1z"/>
</g>
</svg>
